<svg width="50" height="58" viewBox="0 0 50 58" fill="noneffff" xmlns="http://www.w3.org/2000/svg">
<path d="M25 0C23.0246 0 21.4286 1.59598 21.4286 3.57143V5.71429C13.2812 7.36607 7.14286 14.5759 7.14286 23.2143V25.3125C7.14286 30.558 5.21205 35.625 1.72991 39.5536L0.904018 40.4799C-0.0334822 41.529 -0.256697 43.0357 0.3125 44.3192C0.881696 45.6027 2.16518 46.4286 3.57143 46.4286H46.4286C47.8348 46.4286 49.1071 45.6027 49.6875 44.3192C50.2679 43.0357 50.0335 41.529 49.096 40.4799L48.2701 39.5536C44.7879 35.625 42.8571 30.5692 42.8571 25.3125V23.2143C42.8571 14.5759 36.7188 7.36607 28.5714 5.71429V3.57143C28.5714 1.59598 26.9754 0 25 0ZM30.0558 55.0558C31.3951 53.7165 32.1429 51.8973 32.1429 50H25H17.8571C17.8571 51.8973 18.6049 53.7165 19.9442 55.0558C21.2835 56.3951 23.1027 57.1429 25 57.1429C26.8973 57.1429 28.7165 56.3951 30.0558 55.0558Z" fill="black"/>
</svg>
